<?xml version="1.0" encoding="UTF-8"?>
<svg width="722px" height="423px" viewBox="0 0 722 423" version="1.1" xmlns="http://www.w3.org/2000/svg" xmlns:xlink="http://www.w3.org/1999/xlink">
    <!-- Generator: Sketch 61.2 (89653) - https://sketch.com -->
    <title>Fill 3 + Group 535 + Group 2 Mask</title>
    <desc>Created with Sketch.</desc>
    <defs>
        <rect id="path-1" x="0" y="0" width="722" height="423"></rect>
        <polyline id="path-3" points="0.00317169805 4.09310654 0 2.15011366 1168.99547 0.0931065354 1169 2.03134882 0.00317169805 4.09310654"></polyline>
        <linearGradient x1="-3.87595998e-06%" y1="49.9988124%" x2="100.000151%" y2="49.9988124%" id="linearGradient-5">
            <stop stop-color="#68D2FF" offset="0%"></stop>
            <stop stop-color="#2186D9" offset="100%"></stop>
        </linearGradient>
        <path d="M80.3276515,40.179888 C80.3276515,62.3699705 62.3473675,80.3565891 40.1644629,80.3565891 C17.9821954,80.3565891 0,62.3699705 0,40.179888 C0,17.9898055 17.9821954,0 40.1644629,0 C62.3473675,0 80.3276515,17.9898055 80.3276515,40.179888" id="path-6"></path>
        <linearGradient x1="165.901535%" y1="-50.0614317%" x2="-34.2191774%" y2="122.714694%" id="linearGradient-8">
            <stop stop-color="#F3D23E" offset="0%"></stop>
            <stop stop-color="#F3D23E" offset="100%"></stop>
        </linearGradient>
        <path d="M151.363302,19.0640861 L140.642933,24.8661003 C127.788076,32.738196 116.288044,36.9008599 105.935139,38.4598499 C73.6142651,43.3393278 52.5496189,22.8249485 36.8525064,10.3819585 C16.1278445,-6.04979577 0,1.94412618 0,1.94412618 L22.1018539,44.3775829 C55.1081284,75.6827443 88.9487064,68.7299705 110.283998,58.5852853 C123.864197,52.127531 132.379781,44.3775829 132.379781,44.3775829 C156.661177,29.8130808 151.363302,19.0640861 151.363302,19.0640861" id="path-9"></path>
        <linearGradient x1="103.802312%" y1="26.4078575%" x2="176.801451%" y2="1.34550674%" id="linearGradient-11">
            <stop stop-color="#F3F3F7" offset="0%"></stop>
            <stop stop-color="#EEEEF4" offset="100%"></stop>
        </linearGradient>
        <path d="M46.0839397,26.0244549 C45.3778728,23.7128823 43.6388562,21.8443611 41.3572141,20.9422057 L19.1030319,12.1518088 C19.1030319,12.1518088 18.7696114,9.34902699 23.8068756,7.44519011 C28.8441398,5.54135322 27.6673617,0 27.6673617,0 C27.6673617,0 20.7832096,3.08209681 10.7086811,7.9749255 C4.94573703,10.7712862 1.71286597,15.7090622 0,19.4268415 L5.72698697,26.8238738 C19.44299,30.8723364 33.3191656,31.6460711 47.3162879,30.0408123 L46.0839397,26.0244549" id="path-12"></path>
        <linearGradient x1="103.802312%" y1="-1.19706181%" x2="176.801451%" y2="-55.5846071%" id="linearGradient-14">
            <stop stop-color="#F3F3F7" offset="0%"></stop>
            <stop stop-color="#EEEEF4" offset="100%"></stop>
        </linearGradient>
        <path d="M10.55388,0 L0.0610512497,31.0542677 C-0.112695405,31.5674371 0.0939481346,32.1394412 0.55961472,32.4009288 C3.41972739,34.0188833 13.7244371,38.6962428 26.142532,30.6391561 C27.4360503,29.8023958 28.3169203,28.4328544 28.5133435,26.8770032 L31.9109848,0 L10.55388,0" id="path-15"></path>
        <linearGradient x1="42.918349%" y1="84.0680771%" x2="87.1177376%" y2="-38.8382676%" id="linearGradient-17">
            <stop stop-color="#FFFFFF" offset="0%"></stop>
            <stop stop-color="#EEEEF4" offset="100%"></stop>
        </linearGradient>
        <path d="M25.6465945,0 C25.6465945,0 36.5911155,21.9906261 35.1883141,30.8734674 C33.7852093,39.7566324 20.221357,39.1186974 8.37733206,31.9042021 L0.100378788,8.1597402 L25.6465945,0" id="path-18"></path>
        <linearGradient x1="-31.6414209%" y1="-56.4139227%" x2="144.079979%" y2="73.0342157%" id="linearGradient-20">
            <stop stop-color="#FCFCFD" offset="0%"></stop>
            <stop stop-color="#EEEEF4" offset="100%"></stop>
        </linearGradient>
        <path d="M8.54642086,3.22337033 C8.54642086,3.22337033 0.610799902,-3.28602384 0.0309057747,2.1957851 C-0.548988352,7.67759404 7.17685738,10.1357464 11.0037879,8.09202633 L8.54642086,3.22337033" id="path-21"></path>
        <linearGradient x1="-235.417863%" y1="-240.774251%" x2="-549.191869%" y2="-568.795468%" id="linearGradient-23">
            <stop stop-color="#F2F2F7" offset="0%"></stop>
            <stop stop-color="#EEEEF4" offset="100%"></stop>
        </linearGradient>
        <path d="M85.1146132,15.896173 C85.1146132,15.896173 46.4533305,37.3032689 33.4083644,19.022982 C30.6998069,15.2283714 30.0526069,11.4556048 30.7195541,7.86071058 C19.1311066,2.12822732 7.29135953,0.468085188 0.784960954,0 C-0.92253869,8.76255471 -0.0195800087,18.0805705 5.23541657,27.4984445 C28.0855265,68.4527778 90.2310606,25.2360327 90.2310606,25.2360327 L85.1146132,15.896173" id="path-24"></path>
        <linearGradient x1="-32.8632605%" y1="21.538496%" x2="-158.607125%" y2="-22.7645854%" id="linearGradient-26">
            <stop stop-color="#F3F3F7" offset="0%"></stop>
            <stop stop-color="#EEEEF4" offset="100%"></stop>
        </linearGradient>
        <path d="M2.0713832,26.2747732 C2.0713832,26.2747732 -0.919980427,13.6363781 0.286873365,9.14931473 C1.493403,4.66558256 3.83125676,-1.10064359 11.6244268,0.181850383 C19.4172726,1.46434436 28.6098485,4.83547137 28.6098485,4.83547137 C28.6098485,4.83547137 28.1453249,10.678314 22.2225675,8.79288134 L25.8953189,11.7143027 C25.8953189,11.7143027 25.3705012,16.3912417 20.3680387,13.8928769 L23.78373,17.7636768 C23.78373,17.7636768 21.6351866,21.6078276 17.9543312,19.1427743 C14.274124,16.6777209 12.5097122,27.7971102 2.0713832,26.2747732" id="path-27"></path>
        <linearGradient x1="-32.8632605%" y1="-47.0048895%" x2="-158.607125%" y2="-198.002374%" id="linearGradient-29">
            <stop stop-color="#F3F3F7" offset="0%"></stop>
            <stop stop-color="#EEEEF4" offset="100%"></stop>
        </linearGradient>
    </defs>
    <g id="FRESH-DESIGN" stroke="none" stroke-width="1" fill="none" fill-rule="evenodd">
        <g id="Login-" transform="translate(0.000000, -345.000000)">
            <g id="Fill-3-+-Group-535-+-Group-2-Mask" transform="translate(0.000000, 345.000000)">
                <mask id="mask-2" fill="white">
                    <use xlink:href="#path-1"></use>
                </mask>
                <g id="Mask"></g>
                <path d="M1116.02068,302.157075 C1103.05045,289.596781 1109.94743,268.696302 1111.1229,250.931134 C1113.505,214.958216 1083.84223,179.718459 1047.11329,174.886444 C1038.71582,173.78129 1029.9755,174.045886 1022.0678,171.075137 C999.992148,162.77999 995.032027,135.268511 982.328953,115.846046 C966.384436,91.4724756 934.637882,78.8095478 905.17993,82.5190871 C875.721978,86.2290595 849.345178,104.980725 834.064088,129.754004 L833.618835,130.599758 C813.653681,149.286465 780.52239,152.919354 756.781489,139.024821 C733.655037,125.491021 721.548603,99.2089828 700.140829,83.2219335 C679.334146,67.6809297 651.247574,63.4123178 625.333838,67.3916497 C599.415648,71.3718477 575.331902,82.8702938 553.020264,96.2958295 C542.730463,102.485468 532.663288,109.146703 521.567578,113.836676 C485.7336,128.986199 440.656165,120.241976 413.540245,92.8803337 C407.075169,86.3559443 401.531766,78.8779703 394.127205,73.3729896 C375.248469,59.3355488 348.2216,61.1054399 326.067581,69.4590489 C303.910891,77.8126578 284.451545,91.7829752 262.762816,101.226148 C241.073642,110.66932 214.930155,115.159656 194.070933,104.089067 C180.838453,97.0662323 171.029524,84.4418462 156.898969,79.3348421 C141.038604,73.6029412 122.17189,79.1347712 110.509818,91.0580431 C98.847301,102.981315 94.0327781,120.297406 95.5533178,136.687629 C96.6219255,148.209027 100.565088,159.411697 100.809532,170.977699 C101.316675,194.960222 83.919742,218.255055 60.3137528,225.202971 C40.1233009,231.145336 17.3129792,226.040064 -1.94110517,234.421822 C-24.7429671,244.347849 -35.7527431,271.507255 -32.4128988,295.586782 C-29.0734998,319.665009 -15.1708199,343.327072 1.97142857,361 L1151.22685,361 C1159.56644,345.332111 1153.57779,323.895945 1138.22546,314.488283 C1130.98119,310.050781 1122.08503,308.031884 1116.02068,302.157075 Z" id="Fill-3" fill="#EDF1F4" mask="url(#mask-2)"></path>
                <g id="Group-535" mask="url(#mask-2)">
                    <g transform="translate(-18.000000, 358.906893)">
                        <mask id="mask-4" fill="white">
                            <use xlink:href="#path-3"></use>
                        </mask>
                        <g id="Clip-534" stroke="none" fill="none"></g>
                        <polyline id="Fill-533" stroke="none" fill="url(#linearGradient-5)" fill-rule="evenodd" mask="url(#mask-4)" points="0.00317169805 4.09310654 0 2.15011366 1168.99547 0.0931065354 1169 2.03134882 0.00317169805 4.09310654"></polyline>
                    </g>
                </g>
                <g id="Group-2" mask="url(#mask-2)">
                    <g transform="translate(55.000000, 0.000000)" id="Group">
                        <g>
                            <polyline id="Fill-7" fill="#FFFFFF" points="169.458333 20.3643411 149.66594 20.3643411 149.651515 19.8139535 169.45457 19.8889745 169.458333 20.3643411"></polyline>
                            <polyline id="Fill-10" fill="#FFFFFF" points="198.068182 20.3643411 181.568024 20.3643411 181.5625 19.8139535 198.060059 19.8915491 198.068182 20.3643411"></polyline>
                            <polygon id="Fill-48" fill="#74767B" points="18.7064394 296.108527 439.051136 296.108527 439.051136 256.48062 18.7064394 256.48062"></polygon>
                            <path d="M434.649621,36.8784832 C434.649621,27.7099869 424.955478,19.8139535 414.434058,19.8139535 L18.1563163,19.8139535 C7.63553545,19.8139535 0,27.7099869 0,36.8784832 L0,245.4479 C0,254.615758 7.63553545,261.984496 18.1563163,261.984496 L414.434058,261.984496 C424.955478,261.984496 434.649621,254.615758 434.649621,245.4479 L434.649621,36.8784832" id="Fill-50" fill="#F7CD73"></path>
                            <path d="M571.563683,188.805604 L545.656056,107.968981 C545.00757,105.943973 543.135228,104.573643 541.024471,104.573643 C522.943173,104.573643 440.645926,104.573643 436.850379,104.573643 L436.850379,296.108527 L577.698864,296.108527 L571.563683,188.805604" id="Fill-52" fill="#F3D33F"></path>
                            <path d="M579.182049,266.690462 C577.780177,265.756096 576.071047,265.249981 574.115469,265.288913 L464.843142,267.42368 L464.359848,298.893657 L573.536157,301.612403 C577.53693,301.612403 581,299.656074 581,296.914617 L581,270.252734 C581,268.912826 580.58712,267.628073 579.182049,266.690462" id="Fill-53" fill="#E5B731"></path>
                            <path d="M551.14293,183.294455 L535.629392,120.852601 C535.087709,118.690981 533.160327,116.682171 530.955805,116.682171 L470.281052,116.682171 C468.977234,116.682171 467.730105,117.710452 466.819952,118.655962 C465.912948,119.601472 465.421655,121.123202 465.462596,122.441185 L466.917581,172.304893 C466.983716,174.641607 468.684348,176.663152 470.967603,177.035626 L545.70091,189.26995 C547.303912,189.531 548.92896,188.977065 550.024923,187.767322 C551.120885,186.557579 551.539744,184.886223 551.14293,183.294455" id="Fill-54" fill="#333435"></path>
                            <path d="M492.969697,199.195431 C492.969697,201.651503 490.951568,203.643411 488.46005,203.643411 L469.96676,203.643411 C467.478357,203.643411 465.460227,201.651503 465.460227,199.195431 L465.460227,197.086713 C465.460227,194.627567 467.478357,192.635659 469.96676,192.635659 L488.46005,192.635659 C490.951568,192.635659 492.969697,194.627567 492.969697,197.086713 L492.969697,199.195431" id="Fill-56" fill="#E5B731"></path>
                            <path d="M444.171594,48.4496951 C442.530467,48.3281108 440.432762,48.9232339 439.229055,50.0462888 C438.022156,51.1693437 436.850379,52.769137 436.850379,54.4169241 L436.850379,104.573643 L500.672348,104.573643 C500.672348,104.573643 497.243223,52.3275941 444.171594,48.4496951" id="Fill-57" fill="#F7E057"></path>
                            <path d="M551.289773,299.412448 C551.289773,326.769986 529.122008,348.945736 501.774322,348.945736 C474.426636,348.945736 452.255682,326.769986 452.255682,299.412448 C452.255682,272.05491 474.426636,249.875969 501.774322,249.875969 C529.122008,249.875969 551.289773,272.05491 551.289773,299.412448" id="Fill-58" fill="#333435"></path>
                            <path d="M542.486742,298.862059 C542.486742,321.052141 524.506601,339.03876 502.32451,339.03876 C480.142418,339.03876 462.159091,321.052141 462.159091,298.862059 C462.159091,276.671976 480.142418,258.682171 502.32451,258.682171 C524.506601,258.682171 542.486742,276.671976 542.486742,298.862059 L520.479167,268.03876" id="Fill-59" fill="#979AA0"></path>
                            <path d="M246.484848,299.412448 C246.484848,326.769986 224.316869,348.945736 196.968281,348.945736 C169.62065,348.945736 147.450758,326.769986 147.450758,299.412448 C147.450758,272.05491 169.62065,249.875969 196.968281,249.875969 C224.316869,249.875969 246.484848,272.05491 246.484848,299.412448" id="Fill-62" fill="#333435"></path>
                            <g id="Group-65" transform="translate(156.253788, 258.682171)">
                                <mask id="mask-7" fill="white">
                                    <use xlink:href="#path-6"></use>
                                </mask>
                                <g id="Clip-64"></g>
                                <path d="M80.3276515,40.179888 C80.3276515,62.3699705 62.3473675,80.3565891 40.1644629,80.3565891 C17.9821954,80.3565891 0,62.3699705 0,40.179888 C0,17.9898055 17.9821954,0 40.1644629,0 C62.3473675,0 80.3276515,17.9898055 80.3276515,40.179888" id="Fill-63" fill="url(#linearGradient-8)" mask="url(#mask-7)"></path>
                            </g>
                            <path d="M230.841083,313.72093 C230.747511,313.72093 230.653939,313.70188 230.563594,313.663779 C230.202213,313.514552 230.034429,313.104971 230.18608,312.749366 C232.028478,308.466226 232.96097,303.916383 232.96097,299.226838 C232.96097,280.068601 217.121507,264.482292 197.653391,264.482292 C191.612841,264.482292 185.653603,266.00949 180.418739,268.895608 C180.074459,269.086111 179.64306,268.965459 179.45269,268.628904 C179.260706,268.292349 179.382672,267.866893 179.724371,267.67639 C185.171223,264.672795 191.371168,263.085271 197.653391,263.085271 C217.905575,263.085271 234.380682,279.297064 234.380682,299.226838 C234.380682,304.103711 233.40947,308.837707 231.49286,313.292299 C231.379928,313.559003 231.115345,313.72093 230.841083,313.72093" id="Fill-66" fill="#FFFFFF"></path>
                            <path d="M133.145833,299.412448 C133.145833,326.769986 110.976474,348.945736 83.6287879,348.945736 C56.2811021,348.945736 34.1117424,326.769986 34.1117424,299.412448 C34.1117424,272.05491 56.2811021,249.875969 83.6287879,249.875969 C110.976474,249.875969 133.145833,272.05491 133.145833,299.412448" id="Fill-68" fill="#333435"></path>
                            <path d="M123.242424,298.862059 C123.242424,321.052141 105.260585,339.03876 83.0787578,339.03876 C60.8969302,339.03876 42.9147727,321.052141 42.9147727,298.862059 C42.9147727,276.671976 60.8969302,258.682171 83.0787578,258.682171 C105.260585,258.682171 123.242424,276.671976 123.242424,298.862059" id="Fill-69" fill="#979AA0"></path>
                            <path d="M445.10322,230.062016 C444.800616,230.062016 444.55303,229.748388 444.55303,229.361153 L444.55303,116.285458 C444.55303,115.895023 444.800616,115.581395 445.10322,115.581395 C445.408325,115.581395 445.653409,115.895023 445.653409,116.285458 L445.653409,229.361153 C445.653409,229.748388 445.408325,230.062016 445.10322,230.062016" id="Fill-75" fill="#F7EBA6"></path>
                            <path d="M488.956757,100.170543 C488.658109,100.170543 488.382183,99.9872964 488.281552,99.6947454 C480.448514,77.2197565 468.294808,67.581648 459.478177,63.4537857 C449.934402,58.9851496 442.127334,59.8242244 442.049425,59.833869 C441.646899,59.8788768 441.302804,59.6024001 441.257357,59.2134037 C441.208664,58.8276222 441.491082,58.4739891 441.880624,58.4289812 C442.211735,58.3904031 450.109696,57.5288243 460.007305,62.1356988 C469.099861,66.369651 481.620386,76.2424433 489.628717,99.2318076 C489.758564,99.6015149 489.560547,100.003371 489.187236,100.131964 C489.109328,100.157683 489.03142,100.170543 488.956757,100.170543" id="Fill-76" fill="#F7EBA6"></path>
                            <path d="M360.924242,216.131536 C360.924242,200.349069 348.245025,187.507196 332.472846,187.33422 C285.127495,186.818495 187.484392,186.792869 107.590592,193.529327 C96.6883858,194.448662 88.2080384,203.388964 87.8129334,214.324897 L80.3459629,330.462326 C79.7907668,345.825165 91.4008772,362.401922 106.763222,362.696622 L333.42699,363.250905 C348.526785,363.535995 360.924242,351.366807 360.924242,336.257025 L360.924242,216.131536 Z" id="Fill-77" fill="#DBB59D"></path>
                            <path d="M333.348556,230.127154 C333.551796,240.151391 333.245322,256.056346 332.993691,266.331895 C332.864649,271.678574 328.04494,275.752981 322.5897,275.130982 L283.335199,270.651333 C278.102556,270.054465 274.418414,265.358058 275.199117,260.287824 L280.018826,228.986822 C280.702748,224.541728 284.622391,221.255814 289.238859,221.255814 L324.028515,221.255814 C329.09663,221.255814 333.248548,225.192 333.348556,230.127154" id="Fill-78" fill="#FFFFFF"></path>
                            <path d="M191.485732,286.029809 L198.441284,189.333333 L237.681818,190.096364 L237.681818,283.057838 C237.681818,286.805664 234.917295,289.95076 231.271012,290.351511 L199.417496,293.862093 C199.153282,293.890947 198.890636,293.906977 198.63207,293.906977 C194.523569,293.906977 191.176645,290.329069 191.485732,286.029809 Z" id="Fill-79" fill="#8A776C"></path>
                            <path d="M218.641378,273.211987 C218.546115,274.95195 217.163258,276.294574 215.513049,276.294574 C215.451589,276.294574 215.390128,276.291369 215.328668,276.288165 C213.598561,276.182421 212.277164,274.634719 212.378574,272.830669 L217.08336,188.383163 C219.191448,188.328689 221.284171,188.280623 223.376894,188.232558 L218.641378,273.211987" id="Fill-80" fill="#FFFFFF"></path>
                            <path d="M314.847353,259.782946 C315.496772,259.782946 316.047684,259.340047 316.087817,258.763323 L318.006887,232.316854 C318.050668,231.717825 317.532592,231.204827 316.846689,231.166592 C316.127949,231.11561 315.573389,231.584 315.529608,232.179842 L313.610537,258.629497 C313.566756,259.225339 314.084832,259.741524 314.770736,259.779759 L314.847353,259.782946" id="Fill-81" fill="#333435"></path>
                            <path d="M312.191491,259.782946 C312.612171,259.782946 312.959289,259.328979 312.973082,258.74978 L313.60755,232.266296 C313.621342,231.677704 313.281121,231.183037 312.851246,231.164252 C312.352407,231.132944 312.058161,231.608826 312.04207,232.194287 L311.407602,258.680902 C311.393809,259.269494 311.734031,259.764161 312.163906,259.782946 L312.191491,259.782946" id="Fill-82" fill="#333435"></path>
                            <path d="M306.899259,259.779815 C306.320166,259.751636 305.878952,259.253813 305.906528,258.665191 C306.320166,249.766987 307.10761,232.797155 307.119866,232.217926 C307.12293,231.635566 307.59172,231.162791 308.161621,231.162791 C308.740714,231.162791 309.206439,231.638697 309.206439,232.23045 C309.206439,232.668785 308.192261,254.410209 307.986974,258.765382 C307.962462,259.338349 307.4998,259.782946 306.948283,259.782946 L306.899259,259.779815 L306.899259,259.779815 Z" id="Fill-83" fill="#333435"></path>
                            <path d="M300.088506,261.984496 C301.098664,261.984496 301.934466,261.029688 301.967676,259.813877 C302.764732,232.735646 302.623587,232.124437 302.532258,231.718065 C302.261037,230.518773 301.214901,229.815056 300.221348,230.142136 C299.296985,230.442785 298.721333,231.509923 298.848641,232.6101 C298.909527,234.235587 298.486091,249.991576 298.2038,259.655293 C298.167822,260.897534 298.981483,261.941546 300.019317,261.981192 L300.088506,261.984496" id="Fill-84" fill="#333435"></path>
                            <path d="M294.903131,259.782946 C295.510682,259.782946 296.001894,259.295428 296.001894,258.696387 L296.001894,232.246163 C296.001894,231.647122 295.510682,231.162791 294.903131,231.162791 C294.292348,231.162791 293.801136,231.647122 293.801136,232.246163 L293.801136,258.696387 C293.801136,259.295428 294.292348,259.782946 294.903131,259.782946" id="Fill-85" fill="#333435"></path>
                            <path d="M291.541724,259.782946 C292.108413,259.782946 292.574017,259.312368 292.58627,258.724147 C292.785377,249.554249 293.250981,234.575265 293.667574,232.772445 C293.851365,232.43223 293.851365,232.002988 293.630816,231.650055 C293.315308,231.147681 292.668976,231.014139 292.188056,231.341636 C291.618303,231.726364 291.079183,232.092016 290.500241,258.673274 C290.487988,259.271034 290.944403,259.767048 291.517218,259.782946 L291.541724,259.782946" id="Fill-86" fill="#333435"></path>
                            <path d="M321.176004,261.984496 C322.263792,261.984496 323.175837,261.094459 323.233408,259.941529 L324.60905,232.334553 C324.666621,231.143614 323.793967,230.130049 322.654668,230.066702 C321.575971,229.987517 320.548784,230.921897 320.488183,232.109668 L319.112541,259.716644 C319.05497,260.907583 319.927624,261.921148 321.066923,261.984496 C321.103283,261.984496 321.139644,261.984496 321.176004,261.984496" id="Fill-87" fill="#333435"></path>
                            <g id="Group-4" transform="translate(282.873230, 141.564585) rotate(-1.000000) translate(-282.873230, -141.564585) translate(206.873230, 93.564585)">
                                <path d="M151.852273,15.7677298 C151.852273,7.18617019 144.993054,0.201872 136.456041,0.110103878 C110.832665,-0.170160929 57.9910208,-0.185042246 14.75401,3.478242 C8.85434178,3.97676612 4.26483365,8.8379964 4.05091485,14.7855628 L0.00989747184,77.9369125 C-0.290378395,86.2902919 6.27942071,93.2671494 14.5926457,93.4258834 L136.971716,95.7647305 C145.143562,95.9209843 151.852273,89.3037586 151.852273,81.0867913 L151.852273,15.7677298 Z" id="Fill-88" fill="#DBB59D"></path>
                                <path d="M137.511213,22.5026148 C137.621814,28.0262864 137.455913,36.7887372 137.317663,42.450439 C137.247281,45.3959042 134.607957,47.6413592 131.624264,47.2987486 L110.14268,44.8289945 C107.282156,44.5011729 105.266215,41.9155721 105.693534,39.1204611 L108.330344,21.8716197 C108.704877,19.4240491 110.849014,17.6124031 113.37271,17.6124031 L132.411034,17.6124031 C135.186095,17.6124031 137.455913,19.7814486 137.511213,22.5026148" id="Fill-89" fill="#FFFFFF"></path>
                                <path d="M63.3445778,57.2403101 C61.0950237,57.2403101 59.2621988,55.301302 59.4312885,52.9739976 L63.2449837,0.526796839 C70.5584201,0.291840502 77.7698154,0.121188005 84.7291667,0 L84.7291667,51.3614552 C84.7291667,53.3919726 83.2169026,55.0960244 81.2201267,55.3136681 L63.7752549,57.2155778 C63.6308802,57.2328904 63.4865055,57.2403101 63.3445778,57.2403101" id="Fill-90" fill="#8A776C"></path>
                                <path d="M74.185345,46.7400817 C74.1275763,47.6962657 73.2978076,48.4341085 72.307862,48.4341085 C72.2711001,48.4341085 72.2343382,48.4341085 72.1975763,48.4315989 C71.1577395,48.3738765 70.3647327,47.5230986 70.4277531,46.5317792 L73.2479164,0.0828190881 C74.5135763,0.0527030561 75.7713587,0.0250966934 77.0265152,0 L74.185345,46.7400817" id="Fill-91" fill="#FFFFFF"></path>
                                <path d="M127.165058,39.627907 C127.4895,39.627907 127.762031,39.3909224 127.782795,39.0806436 L128.743144,24.8371378 C128.763908,24.5170865 128.50695,24.2385685 128.161744,24.2190234 C127.80356,24.1921489 127.525837,24.4437923 127.505073,24.7638436 L126.544724,39.0073494 C126.52396,39.3274008 126.783514,39.6059187 127.126125,39.6254638 L127.165058,39.627907" id="Fill-92" fill="#333435"></path>
                                <path d="M125.125621,39.627907 C125.544673,39.627907 125.894974,39.3655491 125.908069,39.0337434 L126.543195,23.7526803 C126.556291,23.4105862 126.215811,23.1276511 125.783663,23.1173626 C125.286039,23.0967855 124.991393,23.3720041 124.975024,23.7115261 L124.343172,38.9925893 C124.330076,39.3321113 124.667282,39.6150463 125.09943,39.627907 L125.125621,39.627907" id="Fill-93" fill="#333435"></path>
                                <path d="M122.803547,39.6253347 C122.41946,39.6099008 122.122666,39.3218026 122.143034,38.9822583 C122.41655,33.8505092 122.943215,24.0577428 122.951944,23.7233431 C122.954854,23.3889434 123.266197,23.1162791 123.647373,23.1162791 C124.03146,23.1162791 124.342803,23.3915157 124.342803,23.73106 C124.342803,23.983146 123.664832,36.5282791 123.530984,39.0414214 C123.513525,39.3706764 123.205092,39.627907 122.835554,39.627907 L122.803547,39.6253347 L122.803547,39.6253347 Z" id="Fill-94" fill="#333435"></path>
                                <path d="M118.68294,40.7286822 C119.187362,40.7286822 119.605086,40.2018305 119.622819,39.5322358 C120.02084,24.5909305 119.951876,24.2561331 119.904586,24.0329349 C119.768629,23.3685308 119.246473,22.9792316 118.749933,23.1609046 C118.28886,23.3270056 118.001182,23.9161451 118.062265,24.523452 C118.093791,25.4214356 117.882959,34.1131902 117.74109,39.4439946 C117.723356,40.1291613 118.129258,40.7027289 118.649443,40.7260868 L118.68294,40.7286822" id="Fill-95" fill="#333435"></path>
                                <path d="M116.089962,39.627907 C116.393832,39.627907 116.640152,39.366499 116.640152,39.0440145 L116.640152,24.8009467 C116.640152,24.4784622 116.393832,24.2170543 116.089962,24.2170543 C115.786092,24.2170543 115.539773,24.4784622 115.539773,24.8009467 L115.539773,39.0440145 C115.539773,39.366499 115.786092,39.627907 116.089962,39.627907" id="Fill-96" fill="#333435"></path>
                                <path d="M115.13418,39.627907 C115.512052,39.627907 115.82307,39.3743846 115.828883,39.0574816 C115.962592,34.121108 116.27361,26.054708 116.552654,25.0844972 C116.674735,24.9016686 116.671829,24.6700856 116.526493,24.4799438 C116.31721,24.2093574 115.887017,24.136226 115.564373,24.3141792 C115.186501,24.521385 114.826069,24.7188399 114.439476,39.0306667 C114.433663,39.3524451 114.735961,39.6181561 115.119646,39.627907 L115.13418,39.627907" id="Fill-97" fill="#333435"></path>
                                <path d="M130.396453,40.7286822 C131.266211,40.7286822 131.994461,40.2359991 132.042781,39.5989947 L133.143784,24.3681198 C133.188652,23.711209 132.491465,23.1538301 131.58029,23.118994 C130.717435,23.0742046 129.895998,23.5892824 129.847678,24.2437049 L128.746675,39.477068 C128.698355,40.1314905 129.398993,40.6913577 130.310168,40.7261939 L130.396453,40.7286822" id="Fill-98" fill="#333435"></path>
                            </g>
                            <g id="Group-3" transform="translate(44.015152, 0.000000)">
                                <g id="Group-101" transform="translate(103.435606, 75.953488)">
                                    <mask id="mask-10" fill="white">
                                        <use xlink:href="#path-9"></use>
                                    </mask>
                                    <g id="Clip-100"></g>
                                    <path d="M151.363302,19.0640861 L140.642933,24.8661003 C127.788076,32.738196 116.288044,36.9008599 105.935139,38.4598499 C73.6142651,43.3393278 52.5496189,22.8249485 36.8525064,10.3819585 C16.1278445,-6.04979577 0,1.94412618 0,1.94412618 L22.1018539,44.3775829 C55.1081284,75.6827443 88.9487064,68.7299705 110.283998,58.5852853 C123.864197,52.127531 132.379781,44.3775829 132.379781,44.3775829 C156.661177,29.8130808 151.363302,19.0640861 151.363302,19.0640861" id="Fill-99" fill="url(#linearGradient-11)" mask="url(#mask-10)"></path>
                                </g>
                                <g id="Group-104" transform="translate(240.982955, 83.658915)">
                                    <mask id="mask-13" fill="white">
                                        <use xlink:href="#path-12"></use>
                                    </mask>
                                    <g id="Clip-103"></g>
                                    <path d="M46.0839397,26.0244549 C45.3778728,23.7128823 43.6388562,21.8443611 41.3572141,20.9422057 L19.1030319,12.1518088 C19.1030319,12.1518088 18.7696114,9.34902699 23.8068756,7.44519011 C28.8441398,5.54135322 27.6673617,0 27.6673617,0 C27.6673617,0 20.7832096,3.08209681 10.7086811,7.9749255 C4.94573703,10.7712862 1.71286597,15.7090622 0,19.4268415 L5.72698697,26.8238738 C19.44299,30.8723364 33.3191656,31.6460711 47.3162879,30.0408123 L46.0839397,26.0244549" id="Fill-102" fill="url(#linearGradient-14)" mask="url(#mask-13)"></path>
                                </g>
                                <path d="M95.5156793,193.736434 C94.938363,196.767286 96.5518305,352.505195 111.931948,418.931888 C112.182718,420.016614 113.773388,422.1414 113.224649,423.076179 C111.889886,425.344532 102.062023,424.706458 96.5200428,424.899225 C94.8038271,424.958497 93.8819833,422.958135 93.3977826,421.260858 C89.0011239,405.848181 67.935179,328.631657 65.1866653,254.867113 C62.1161002,172.443905 65.1866653,252.059587 65.1866653,252.059587 L63.8219697,199.842802 L95.5156793,193.736434" id="Fill-109" fill="#333435"></path>
                                <path d="M39.064838,199.181545 C26.6653522,278.071308 40.83764,400.216497 45.9265726,422.939101 C46.2383401,424.332891 47.3030975,425.397414 48.6406911,425.630777 C50.9123212,426.027176 54.6522656,426.353246 58.339352,425.224788 C59.6095278,424.834783 60.5021009,423.626406 60.5536929,422.232616 C61.2364163,403.864005 60.007704,291.085338 71.561461,246.516042 C72.1470143,244.259126 73.4554884,242.286723 75.2656393,240.931294 L94.2790282,225.279934 L94.6325758,191.534884 L39.064838,199.181545" id="Fill-114" fill="#333435"></path>
                                <path d="M110.923179,73.7749923 C77.948093,73.2333329 41.5643897,82.4160518 41.5643897,82.4160518 C33.4623377,129.578649 36.7157416,181.851961 38.4020057,199.063983 C38.7475621,202.594327 36.8556249,206.32859 40.364204,206.895739 C57.6174325,209.677319 84.7369029,206.847946 93.1640717,204.404106 C96.2437393,203.511962 95.7199754,200.239702 96.3746802,197.107636 C102.032288,170.034228 118.210842,110.324252 118.210842,110.324252 C126.053567,120.389557 137.119356,134.4727 153.478993,138.222894 C145.142205,128.581358 161.13329,108.361534 159.426267,101.109671 C144.636006,84.5317094 121.09346,73.9438625 110.923179,73.7749923" id="Fill-115" fill="#22B6E6"></path>
                                <g id="Group-118" transform="translate(67.123106, 46.232558)">
                                    <mask id="mask-16" fill="white">
                                        <use xlink:href="#path-15"></use>
                                    </mask>
                                    <g id="Clip-117"></g>
                                    <path d="M10.55388,0 L0.0610512497,31.0542677 C-0.112695405,31.5674371 0.0939481346,32.1394412 0.55961472,32.4009288 C3.41972739,34.0188833 13.7244371,38.6962428 26.142532,30.6391561 C27.4360503,29.8023958 28.3169203,28.4328544 28.5133435,26.8770032 L31.9109848,0 L10.55388,0" id="Fill-116" fill="url(#linearGradient-17)" mask="url(#mask-16)"></path>
                                </g>
                                <g id="Group-121" transform="translate(74.725379, 17.612403)">
                                    <mask id="mask-19" fill="white">
                                        <use xlink:href="#path-18"></use>
                                    </mask>
                                    <g id="Clip-120"></g>
                                    <path d="M25.6465945,0 C25.6465945,0 36.5911155,21.9906261 35.1883141,30.8734674 C33.7852093,39.7566324 20.221357,39.1186974 8.37733206,31.9042021 L0.100378788,8.1597402 L25.6465945,0" id="Fill-119" fill="url(#linearGradient-20)" mask="url(#mask-19)"></path>
                                </g>
                                <path d="M82.7456124,38.1683309 C83.2444057,37.9444231 83.4282709,37.3270865 83.1293721,36.8649587 C82.2210465,35.4607643 80.5184861,32.5960806 79.974748,30.0876139 C79.974748,30.0876139 77.9365157,28.7667488 85.1632042,27.0165152 C89.0979197,26.0633169 96.0731685,25.2748689 99.1388459,22.4124116 C102.569739,19.2086858 96.2444617,13.1564968 93.5848594,11.5315752 C90.0750768,9.38695855 85.8015465,8.1185719 81.8432585,9.19930857 C79.9329462,9.72059386 78.2046132,10.753941 76.5029957,11.7752021 C73.6051543,13.5149401 70.6051655,15.3513655 68.7624275,18.2061896 C67.5696609,20.0543829 66.9445192,22.2101313 66.3718655,24.3401176 C65.549658,27.4004025 64.7969107,30.5347933 64.939917,33.7028975 C65.3202194,42.143648 75.0952482,49.7056242 82.9568217,50.6295618 C83.5998785,50.7052579 84.0980432,50.0627953 83.8874625,49.4432323 L80.6740644,39.9910801 C80.5250864,39.5518519 80.7325241,39.070323 81.1517996,38.882355 L82.7456124,38.1683309" id="Fill-122" fill="#333435"></path>
                                <g id="Group-125" transform="translate(74.825758, 36.325581)">
                                    <mask id="mask-22" fill="white">
                                        <use xlink:href="#path-21"></use>
                                    </mask>
                                    <g id="Clip-124"></g>
                                    <path d="M8.54642086,3.22337033 C8.54642086,3.22337033 0.610799902,-3.28602384 0.0309057747,2.1957851 C-0.548988352,7.67759404 7.17685738,10.1357464 11.0037879,8.09202633 L8.54642086,3.22337033" id="Fill-123" fill="url(#linearGradient-23)" mask="url(#mask-22)"></path>
                                </g>
                                <path d="M104.535985,13.3954973 C87.8221241,-17.1432838 44.5023899,10.5999461 64.6631693,36.3255814 C79.6527779,26.6848719 96.5908517,12.3531092 104.535985,13.3954973" id="Fill-126" fill="#F3D33F"></path>
                                <path d="M78.5222339,26.4184209 L108.420478,25.5498606 C109.179639,25.5279018 109.873088,25.1332366 110.241453,24.508894 C112.919842,19.9660896 116.838857,17.0719769 121.739442,15.4820399 C122.359281,15.2808496 122.231016,14.4223786 121.576426,14.3805381 L103.24662,13.2093023 L103.185331,13.2095991 C94.0501254,13.8695505 85.9631492,19.0319497 78.2486453,25.7952652 C77.9911687,26.0207882 78.1702966,26.42851 78.5222339,26.4184209" id="Fill-127" fill="#F3D33F"></path>
                                <path d="M44.7496634,129.919711 C62.8721574,109.066567 61.0366069,93.015303 40.5814929,81.4573643 C40.5814929,81.4573643 6.6763378,105.068215 1.10037879,135.004433 C7.50677309,135.486549 19.1645416,137.196456 30.5748731,143.100775 C33.082173,128.965121 44.7496634,129.919711 44.7496634,129.919711" id="Fill-128" fill="#22B6E6"></path>
                                <g id="Group-131" transform="translate(0.000000, 135.395349)">
                                    <mask id="mask-25" fill="white">
                                        <use xlink:href="#path-24"></use>
                                    </mask>
                                    <g id="Clip-130"></g>
                                    <path d="M85.1146132,15.896173 C85.1146132,15.896173 46.4533305,37.3032689 33.4083644,19.022982 C30.6998069,15.2283714 30.0526069,11.4556048 30.7195541,7.86071058 C19.1311066,2.12822732 7.29135953,0.468085188 0.784960954,0 C-0.92253869,8.76255471 -0.0195800087,18.0805705 5.23541657,27.4984445 C28.0855265,68.4527778 90.2310606,25.2360327 90.2310606,25.2360327 L85.1146132,15.896173" id="Fill-129" fill="url(#linearGradient-26)" mask="url(#mask-25)"></path>
                                </g>
                                <path d="M81.5118904,179.499568 L102.407571,105.241754 C102.644771,104.397587 103.351325,103.784523 104.207389,103.68181 C107.993127,103.232444 118.963627,101.971008 131.630171,100.879689 C146.886989,99.5668972 164.605073,98.5012566 175.192332,99.4064092 C176.696912,99.5380093 177.608492,101.155729 176.936635,102.535926 C170.918316,114.928812 146.151417,165.350943 133.749515,181.868372 C133.338831,182.414031 132.703249,182.735007 132.026346,182.728682 L83.5441772,182.269592 C82.1335942,182.256753 81.1232861,180.879765 81.5118904,179.499568" id="Fill-132" fill="#333435"></path>
                                <path d="M133.928749,94.7221088 L149.453122,92.4789725 C150.280248,92.3584039 150.957399,93.0453644 150.694296,93.7351288 L149.157697,97.7755781 C149.023883,98.1260682 148.670277,98.3812249 148.247179,98.4316955 L133.307839,100.161714 C132.535014,100.25144 131.897942,99.6429891 132.075392,98.9840678 L133.026958,95.4567359 C133.12942,95.0754028 133.485288,94.7865989 133.928749,94.7221088" id="Fill-133" fill="#A8ABB2"></path>
                                <path d="M122.169856,107.263632 L123.430803,101.02184 C123.557312,100.394935 124.10095,99.922485 124.76823,99.8558575 L155.681677,96.8757878 C156.722429,96.7758464 157.555413,97.6813757 157.311317,98.6474755 L155.345807,106.424731 C155.188706,107.048607 154.618619,107.496829 153.946241,107.530143 L123.737038,108.97475 C122.753964,109.023206 121.984075,108.181276 122.169856,107.263632" id="Fill-134" fill="#A8ABB2"></path>
                                <g id="Group-137" transform="translate(83.628788, 135.395349)">
                                    <mask id="mask-28" fill="white">
                                        <use xlink:href="#path-27"></use>
                                    </mask>
                                    <g id="Clip-136"></g>
                                    <path d="M2.0713832,26.2747732 C2.0713832,26.2747732 -0.919980427,13.6363781 0.286873365,9.14931473 C1.493403,4.66558256 3.83125676,-1.10064359 11.6244268,0.181850383 C19.4172726,1.46434436 28.6098485,4.83547137 28.6098485,4.83547137 C28.6098485,4.83547137 28.1453249,10.678314 22.2225675,8.79288134 L25.8953189,11.7143027 C25.8953189,11.7143027 25.3705012,16.3912417 20.3680387,13.8928769 L23.78373,17.7636768 C23.78373,17.7636768 21.6351866,21.6078276 17.9543312,19.1427743 C14.274124,16.6777209 12.5097122,27.7971102 2.0713832,26.2747732" id="Fill-135" fill="url(#linearGradient-29)" mask="url(#mask-28)"></path>
                                </g>
                                <path d="M73.7253788,114.48062 C71.2818976,114.683836 50.6174242,115.370107 50.6174242,115.370107 L51.4512646,136.861042 L62.1567303,143.100775 L73.7253788,136.861042 L73.7253788,114.48062" id="Fill-138" fill="#1F97BE"></path>
                                <polyline id="Fill-139" fill="#83DBF7" points="75.1202372 114.48062 50.5226535 115.414152 49.5170455 124.067679 62.3186413 127.689922 75.9261364 121.085271 75.1202372 114.48062"></polyline>
                            </g>
                            <path d="M548.525308,116.682171 L547.713266,116.816548 C546.340528,117.040511 545.125688,117.833978 544.371649,118.995384 C543.617611,120.159989 543.395266,121.583751 543.756173,122.917928 L561.060397,186.808046 C561.727431,189.278033 564.199003,190.820175 566.7318,190.349854 L572.19697,189.332424 L548.525308,116.682171" id="Fill-55" fill="#333435"></path>
                            <path d="M520.479167,299.410853 C520.479167,309.744851 512.349362,318.124031 502.322917,318.124031 C492.296471,318.124031 484.166667,309.744851 484.166667,299.410853 C484.166667,289.073618 492.296471,280.697674 502.322917,280.697674 C512.349362,280.697674 520.479167,289.073618 520.479167,299.410853" id="Fill-61" fill="#333435"></path>
                            <path d="M101.234848,299.410853 C101.234848,309.744851 93.1056717,318.124031 83.0785985,318.124031 C73.0512112,318.124031 64.9223485,309.744851 64.9223485,299.410853 C64.9223485,289.073618 73.0512112,280.697674 83.0785985,280.697674 C93.1056717,280.697674 101.234848,289.073618 101.234848,299.410853" id="Fill-71" fill="#333435"></path>
                            <path d="M579.899621,259.084106 C579.899621,261.901496 577.577487,264.186047 574.717916,264.186047 L560.869613,264.186047 C558.010042,264.186047 555.691288,261.901496 555.691288,259.084106 L555.691288,240.671162 C555.691288,237.850442 558.010042,235.565891 560.869613,235.565891 L574.717916,235.565891 C577.577487,235.565891 579.899621,237.850442 579.899621,240.671162 L579.899621,259.084106" id="Fill-72" fill="#ECC538"></path>
                            <path d="M555.691288,241.069767 L555.691288,240.723284 C555.691288,240.042582 556.093112,239.417072 556.791667,238.868217 C556.08693,239.524389 555.691288,240.272549 555.691288,241.069767" id="Fill-73" fill="#FDF6D9"></path>
                            <path d="M565.594697,261.984496 L561.901666,261.984496 C558.979745,261.984496 555.691288,259.348169 555.691288,256.594671 L555.691288,240.555385 C555.691288,239.709157 555.912593,238.915004 556.306793,238.218493 C557.392572,236.581366 559.747398,235.565891 561.901666,235.565891 L565.594697,235.565891 L565.594697,261.984496" id="Fill-74" fill="#FBF3D7"></path>
                        </g>
                    </g>
                </g>
            </g>
        </g>
    </g>
</svg>