<?xml version="1.0" encoding="UTF-8"?>
<svg width="122px" height="105px" viewBox="0 0 122 105" version="1.1" xmlns="http://www.w3.org/2000/svg" xmlns:xlink="http://www.w3.org/1999/xlink">
    <!-- Generator: Sketch 61.2 (89653) - https://sketch.com -->
    <title>Group</title>
    <desc>Created with Sketch.</desc>
    <g id="FRESH-DESIGN" stroke="none" stroke-width="1" fill="none" fill-rule="evenodd">
        <g id="Login-" transform="translate(-40.000000, -28.000000)">
            <g id="Group" transform="translate(41.000000, 28.000000)">
                <path d="M20.4999543,86.6484393 C-6.92720695,59.1308042 8.26815744,26.9405345 6.72062836,27.705092 C2.56191126,33.1050736 -9.44237752,63.4299329 14.4026525,89.6608145 C33.4203432,109.814906 62.2949138,107.309862 79,96.1208384 C63.1423416,100.513457 43.1244408,106.962035 20.4999543,86.6484393 Z" id="Path-2" stroke="#00508B" stroke-width="0.5" fill="#00508B" stroke-linejoin="round"></path>
                <path d="M20.6368853,77.6917293 C12.0832123,72.827304 -1.31512805,40.5449293 17.6289509,16.2440281 C42.0999864,-10.6184713 79.6313269,3.88925306 81,11.3961706 C60.2887194,5.24187766 41.2553791,4.57981203 24.5861047,22.785399 C7.91683029,40.9909859 13.4853783,61.1544561 20.6368853,77.6917293 Z" id="Path-3" stroke="#22B6E6" fill="#22B6E6" stroke-linejoin="round"></path>
                <polygon id="Path-5" stroke="#00508B" fill="#00508B" points="30 26.6917293 30 33.9129853 37.9091984 33.9129853 37.9091984 58.6917293 45.8604119 58.6917293 45.8604119 33.9129853 55 33.9129853 52.996988 26.6917293"></polygon>
                <polygon id="Path-6" stroke="#00508B" fill="#00508B" points="59 26.6917293 69.2013809 58.6917293 77.0641268 58.6917293 88 26.6917293 79.790585 26.6917293 73.5 49.0271223 67.4224335 26.6917293"></polygon>
                <path d="" id="Path-7" stroke="#979797"></path>
                <path d="M114.104772,36.4821039 L120,32.2373561 C116.180659,27.3570086 111.05011,25.2057112 104.608352,25.7834641 C94.9457163,26.6500933 92.679538,32.0638227 92.679538,37.1170682 C92.679538,42.1703136 97.5021506,45.4996244 104.608352,46.6234811 C115.856869,46.6234811 112.048505,53.6393506 106.339769,53.6393506 C102.533945,53.6393506 99.5990472,52.275186 97.5350756,49.5468567 C95.35025,50.7740708 93.1718914,52.1382355 91,53.6393506 C96.5908364,60.0035926 109.640475,63.9173173 116.68246,57.1492052 C125.322553,45.0231748 114.73683,40.1281285 110.574676,39.8482548 C107.584963,39.2395646 100.622461,39.5601112 101.272598,35.0107465 C102.37867,31.4741704 106.656061,31.9646229 114.104772,36.4821039 Z" id="Path-8" stroke="#00508B" fill="#00508B"></path>
                <text id="Supply-Chain-Solutio" font-family="OpenSans-Bold, Open Sans" font-size="12" font-weight="bold" line-spacing="14" fill="#00508B">
                    <tspan x="41" y="76.6917293">Supply Chain </tspan>
                    <tspan x="41" y="90.6917293">Solutions</tspan>
                </text>
            </g>
        </g>
    </g>
</svg>