<?xml version="1.0" encoding="UTF-8"?>
<svg width="22px" height="27px" viewBox="0 0 22 27" version="1.1" xmlns="http://www.w3.org/2000/svg" xmlns:xlink="http://www.w3.org/1999/xlink">
    <!-- Generator: Sketch 61.2 (89653) - https://sketch.com -->
    <title>Password</title>
    <desc>Created with Sketch.</desc>
    <g id="FRESH-DESIGN" stroke="none" stroke-width="1" fill="none" fill-rule="evenodd">
        <g id="Login-" transform="translate(-798.000000, -398.000000)" fill="#22B6E6" fill-rule="nonzero">
            <g id="Password" transform="translate(798.000000, 398.000000)">
                <path d="M20.8480641,10.6289593 L18.7171964,10.6289593 L18.7171964,8.18552036 C18.7171964,3.6647823 15.2620899,0 11,0 C6.7379101,0 3.28280356,3.6647823 3.28280356,8.18552036 L3.28280356,10.6289593 L1.15193589,10.6289593 C0.845510966,10.6256593 0.550729835,10.7533159 0.334043526,10.983152 C0.117357218,11.212988 -0.00299562867,11.5256582 5.66730075e-05,11.8506787 L5.66730075e-05,23.3348416 C0.0016399104,25.3583826 1.54780993,26.9983831 3.45557662,27 L18.5444234,27 C20.4521901,26.9983831 21.9983601,25.3583826 21.9999433,23.3348416 L21.9999433,11.8506787 C22.0029956,11.5256582 21.8826428,11.212988 21.6659565,10.983152 C21.4492702,10.7533159 21.154489,10.6256593 20.8480641,10.6289593 Z M5.58644429,8.18552036 C5.58644429,5.01425635 8.01017574,2.44343891 11,2.44343891 C13.9898243,2.44343891 16.4135557,5.01425635 16.4135557,8.18552036 L16.4135557,10.6289593 L5.58644429,10.6289593 L5.58644429,8.18552036 Z" id="Shape"></path>
            </g>
        </g>
    </g>
</svg>